<svg version="1.1" xmlns="http://www.w3.org/2000/svg" xmlns:xlink="http://www.w3.org/1999/xlink" x="0px" y="0px" width="237px"
     height="81.8px" viewBox="0 0 237 81.8" style="overflow:visible;enable-background:new 0 0 237 81.8;" xml:space="preserve">
<style type="text/css">
	.st0{fill:#20123A;}
	.st1{fill:#FFFFFF;stroke:#20123A;stroke-width:1.7392;stroke-linejoin:round;stroke-miterlimit:10;}
	.st2{fill:#5B5862;}
	.st3{fill:#2DBA2D;stroke:#20123A;stroke-width:1.2239;stroke-miterlimit:10;}
</style>
    <defs>
</defs>
    <g>
	<g>
		<path class="st0" d="M0,64.8c0-9.5,6.3-17.2,17.3-17.2c4.5,0,9.8,1.9,13.5,6.4l-6.5,5.6c-1.4-1.6-3.9-3.5-7-3.5c-4.1,0-8,3-8,8.6
			c0,4.5,3,8.5,8,8.5c2.8,0,5.2-1.2,7-3.4l6.5,5.6c-2.9,3.5-7.6,6.3-13.5,6.3C7.5,81.8,0,75.9,0,64.8z"/>
        <path class="st0" d="M33.8,47h8.4v34.4h-8.4V47z"/>
        <path class="st0" d="M68.7,72h-15c0.4,2.2,2.3,3.3,4.8,3.3c1.5,0,3.4-0.5,5.1-2.4l4.5,5c-1.9,2.3-5.3,4-10.6,4
			c-6.9,0-12-4.9-12-11.9c0-6.9,5-11.9,11.9-11.9c6.6,0,11.5,4.9,11.5,11.7C68.9,70.3,68.8,71.4,68.7,72z M53.7,67.4h7.1
			c-0.4-2-1.6-3.1-3.5-3.1C55.5,64.4,54.1,65.5,53.7,67.4z"/>
        <path class="st0" d="M70.9,69.9C70.9,62.9,75.3,58,81,58c2.2,0,4.3,0.9,5.9,2.7h0.1v-2.2h8.4v22.9h-7.9v-2.1l-0.1,0
			c-1.4,1.7-3.3,2.6-5.8,2.6C75.3,81.8,70.9,77,70.9,69.9z M87.4,69.9c0-2.7-1.8-4.6-4-4.6c-2.4,0-4.1,1.9-4.1,4.6
			c0,2.8,1.7,4.6,4.1,4.6C85.6,74.5,87.4,72.7,87.4,69.9z"/>
        <path class="st0" d="M99.5,58.5h8.4v2.4h0.1c1.7-2,4-2.9,6.5-2.9c4.6,0,8.1,2.1,8.1,9.5v13.8h-8.4V69.5c0-3.3-0.9-4.2-3-4.2
			c-2,0-3.3,1.4-3.3,4.5v11.5h-8.4V58.5z"/>
        <path class="st0" d="M126.8,48.2h9v13.2h10.1V48.2h9v33.2h-9V69.3h-10.1v12.1h-9V48.2z"/>
        <path class="st0" d="M157.4,69.9c0-7.1,5.1-11.9,12.6-11.9c7.3,0,12.5,4.9,12.5,11.9c0,7.1-5.2,11.9-12.5,11.9
			C162.5,81.8,157.4,77,157.4,69.9z M174.1,69.9c0-2.7-1.7-4.5-4.1-4.5c-2.4,0-4.2,1.9-4.2,4.5c0,2.7,1.8,4.6,4.2,4.6
			C172.3,74.5,174.1,72.6,174.1,69.9z"/>
        <path class="st0" d="M186.5,74.2v-9.1H184v-6.6h2.5v-7.2l8.4-0.8v8h5v6.6h-5v7.3c0,1.1,0.1,2.3,1.5,2.3c0.3,0,1.1-0.1,1.7-0.3
			l2.1,5.8c-1.7,1-3.4,1.7-6.7,1.7C189.5,81.8,186.5,79.4,186.5,74.2z"/>
        <path class="st0" d="M224.2,72h-15c0.4,2.2,2.3,3.3,4.8,3.3c1.4,0,3.4-0.5,5.1-2.4l4.5,5c-1.9,2.3-5.3,4-10.6,4
			c-6.9,0-12-4.9-12-11.9c0-6.9,5-11.9,11.9-11.9c6.6,0,11.5,4.9,11.5,11.7C224.4,70.3,224.3,71.4,224.2,72z M209.2,67.4h7.1
			c-0.4-2-1.6-3.1-3.5-3.1C211,64.4,209.6,65.5,209.2,67.4z"/>
        <path class="st0" d="M228.6,47h8.4v34.4h-8.4V47z"/>
	</g>
        <g>
		<g>
			<path class="st1" d="M97.7,23.2c0-1.4,1.1-2.5,2.5-2.5h27.1c1.4,0,2.5,1.1,2.5,2.5v19.1c0,1.4-1.1,2.5-2.5,2.5h-8.6v6.2l-6.2-6.2
				h-12.3c-1.4,0-2.5-1.1-2.5-2.5V23.2z"/>
		</g>
            <g>
			<path class="st2" d="M120.5,35.1c-1.2,0-2.2-1-2.2-2.1c0-1.2,1-2.1,2.2-2.1c1.2,0,2.2,1,2.2,2.1
				C122.7,34.1,121.7,35.1,120.5,35.1z"/>
                <path class="st2" d="M113.7,35.1c-1.2,0-2.2-1-2.2-2.1c0-1.2,1-2.1,2.2-2.1c1.2,0,2.2,1,2.2,2.1
				C115.8,34.1,114.9,35.1,113.7,35.1z"/>
                <path class="st2" d="M106.8,35.1c-1.2,0-2.2-1-2.2-2.1c0-1.2,1-2.1,2.2-2.1c1.2,0,2.2,1,2.2,2.1C109,34.1,108,35.1,106.8,35.1z"
                />
		</g>
	</g>
        <g>
		<g>
			<path class="st1" d="M174.3,4.6c0-2.1-1.7-3.7-3.7-3.7h-41.1c-2.1,0-3.7,1.7-3.7,3.7v29c0,2.1,1.7,3.7,3.7,3.7h13.1v9.3l9.3-9.3
				h18.7c2.1,0,3.7-1.7,3.7-3.7V4.6z"/>
		</g>
            <g>
			<path class="st3" d="M145.8,30.6c-0.8,0-1.5-0.3-2.1-0.9l-6-6c-1.2-1.2-1.2-3.1,0-4.3c1.2-1.2,3.1-1.2,4.3,0l3.9,3.9l12.3-12.3
				c1.2-1.2,3.1-1.2,4.3,0c1.2,1.2,1.2,3.1,0,4.3l-14.4,14.4C147.3,30.3,146.6,30.6,145.8,30.6z"/>
		</g>
	</g>
</g>
</svg>
